<svg xmlns="http://www.w3.org/2000/svg" viewBox="0 0 910 416"><rect width="100%" height="100%" fill="#fff"/><text x="455" y="38" text-anchor="middle" font-family="Arial,Helvetica,sans-serif" font-size="28" font-weight="700" fill="#3f3f46">Canals and Rivertrips</text><g font-family="Arial,Helvetica,sans-serif" font-size="17" fill="#3f3f46"><rect x="0" y="52" width="910" height="48" fill="#53658f"/><text x="110" y="82" text-anchor="middle" fill="#fff" font-weight="700">Canal</text><text x="340" y="82" text-anchor="middle" fill="#fff" font-weight="700">Run Length (miles)</text><text x="575" y="82" text-anchor="middle" fill="#fff" font-weight="700">Number of Bridges</text><text x="800" y="82" text-anchor="middle" fill="#fff" font-weight="700">Number of Locks</text><rect x="0" y="100" width="910" height="48" fill="#9eb2ed"/><rect x="0" y="148" width="910" height="48" fill="#eeeeee"/><rect x="0" y="196" width="910" height="48" fill="#9eb2ed"/><rect x="0" y="244" width="910" height="48" fill="#eeeeee"/><rect x="0" y="292" width="910" height="48" fill="#9eb2ed"/><rect x="0" y="340" width="910" height="48" fill="#eeeeee"/><g text-anchor="middle"><text x="110" y="130">Kennet &amp; Avon</text><text x="340" y="130">86</text><text x="575" y="130">1</text><text x="800" y="130">103</text><text x="110" y="178">Lancaster</text><text x="340" y="178">42</text><text x="575" y="178">0</text><text x="800" y="178">6</text><text x="110" y="226">Thames</text><text x="340" y="226">94</text><text x="575" y="226">1</text><text x="800" y="226">45</text><text x="110" y="274">Trent</text><text x="340" y="274">67</text><text x="575" y="274">2</text><text x="800" y="274">13</text><text x="110" y="322">Severn</text><text x="340" y="322">42</text><text x="575" y="322">1</text><text x="800" y="322">6</text><text x="110" y="370">Grand Union</text><text x="340" y="370">137</text><text x="575" y="370">2</text><text x="800" y="370">166</text></g></g></svg>