<svg xmlns="http://www.w3.org/2000/svg" width="1000" height="520" viewBox="0 0 1000 520"><rect width="100%" height="100%" fill="#fff"/><text x="500" y="48" text-anchor="middle" font-family="Arial,sans-serif" font-size="28" font-weight="700" fill="#4d555f">Shops</text><g font-family="Arial,sans-serif" font-size="16" text-anchor="middle"><rect x="70" y="80" width="860" height="48" fill="#2f5940"/><g fill="#fff" font-weight="700"><text x="177" y="110">Item</text><text x="432" y="110">Shop</text><text x="647" y="110">Price (£)</text><text x="815" y="110">Shop Location</text></g><g fill="#4d4d4d"><rect x="70" y="128" width="860" height="44" fill="#e4f0e7"/><rect x="70" y="172" width="860" height="44" fill="#fff"/><rect x="70" y="216" width="860" height="44" fill="#e4f0e7"/><rect x="70" y="260" width="860" height="44" fill="#fff"/><rect x="70" y="304" width="860" height="44" fill="#e4f0e7"/><rect x="70" y="348" width="860" height="44" fill="#fff"/><rect x="70" y="392" width="860" height="44" fill="#e4f0e7"/><rect x="70" y="436" width="860" height="44" fill="#fff"/><text x="177" y="156">Dresser</text><text x="432" y="156">First Zone</text><text x="647" y="156">100</text><text x="815" y="156">Birmingham</text><text x="177" y="200">Chair</text><text x="432" y="200">Queen</text><text x="647" y="200">70</text><text x="815" y="200">London</text><text x="177" y="244">Cabinet</text><text x="432" y="244">Goggle House</text><text x="647" y="244">500</text><text x="815" y="244">Manchester</text><text x="177" y="288">Chair</text><text x="432" y="288">Goggle House</text><text x="647" y="288">20</text><text x="815" y="288">Manchester</text><text x="177" y="332">Cabinet</text><text x="432" y="332">Queen</text><text x="647" y="332">700</text><text x="815" y="332">London</text><text x="177" y="376">Wardrobe</text><text x="432" y="376">Marino Direct</text><text x="647" y="376">300</text><text x="815" y="376">London</text><text x="177" y="420">Dresser</text><text x="432" y="420">Marino Direct</text><text x="647" y="420">120</text><text x="815" y="420">London</text><text x="177" y="464">Wardrobe</text><text x="432" y="464">First Zone</text><text x="647" y="464">180</text><text x="815" y="464">Birmingham</text></g></g></svg>