<svg xmlns="http://www.w3.org/2000/svg" width="1000" height="500" viewBox="0 0 1000 500"><rect width="100%" height="100%" fill="#fff"/><text x="500" y="45" text-anchor="middle" font-family="Arial,sans-serif" font-size="28" font-weight="700" fill="#4d555f">Flights</text><g font-family="Arial,sans-serif" font-size="16" fill="#555"><text x="80" y="80">Name:</text><text x="440" y="80">Herbert Slater</text><text x="80" y="108">Club Membership:</text><text x="440" y="108">Bronze / Silver</text><text x="80" y="136">Time Remaining until Meeting:</text><text x="440" y="136">3 hours</text><text x="80" y="164">Money to Spend:</text><text x="440" y="164">£300</text></g><g font-family="Arial,sans-serif" font-size="15" text-anchor="middle"><rect x="80" y="195" width="840" height="48" fill="#713f43"/><rect x="80" y="243" width="840" height="48" fill="#f0dfd0"/><rect x="80" y="291" width="840" height="48" fill="#fff"/><rect x="80" y="339" width="840" height="48" fill="#f0dfd0"/><rect x="80" y="387" width="840" height="48" fill="#fff"/><g fill="#fff" font-weight="700"><text x="140" y="225"> </text><text x="280" y="225">Flight I</text><text x="440" y="225">Flight II</text><text x="600" y="225">Flight III</text><text x="760" y="225">Flight IV</text></g><g fill="#4d4d4d"><text x="140" y="273">Price:</text><text x="280" y="273">£40</text><text x="440" y="273">£60</text><text x="600" y="273">£140</text><text x="760" y="273">£230</text><text x="140" y="321">Tickets available:</text><text x="280" y="321">2</text><text x="440" y="321">1</text><text x="600" y="321">1</text><text x="760" y="321">1</text><text x="140" y="369">Duration:</text><text x="280" y="369">3h 15m</text><text x="440" y="369">2h 55m</text><text x="600" y="369">2h 35m</text><text x="760" y="369">1h 05m</text><text x="140" y="417">Club Requirement:</text><text x="280" y="417">None</text><text x="440" y="417">Bronze</text><text x="600" y="417">Gold</text><text x="760" y="417">Silver</text></g></g></svg>